<mxfile host="app.diagrams.net" modified="2023-08-22T11:01:45.352Z" agent="Mozilla/5.0 (Windows NT 10.0; Win64; x64) AppleWebKit/537.36 (KHTML, like Gecko) Chrome/115.0.0.0 Safari/537.36" version="21.6.8" etag="2jco4K1jI3AGQ4BG8-au" type="github">
  <diagram name="ページ1" id="aLNYNBD8NHIot-SDsuIn">
    <mxGraphModel>
      <root>
        <mxCell id="0" />
        <mxCell id="1" parent="0" />
      </root>
    </mxGraphModel>
  </diagram>
</mxfile>
